<?xml version="1.0" encoding="UTF-8"?>
<svg id="Layer_1" data-name="Layer 1" xmlns="http://www.w3.org/2000/svg" xmlns:xlink="http://www.w3.org/1999/xlink" viewBox="0 0 1232.61 1058.66">
  <defs>
    <style>
      .cls-1 {
        stroke: url(#linear-gradient-3);
        stroke-width: 1.88px;
      }

      .cls-1, .cls-2, .cls-3, .cls-4, .cls-5, .cls-6, .cls-7, .cls-8, .cls-9, .cls-10, .cls-11, .cls-12, .cls-13, .cls-14, .cls-15, .cls-16, .cls-17 {
        fill: none;
        stroke-miterlimit: 10;
      }

      .cls-18, .cls-19 {
        fill: #fff;
      }

      .cls-2 {
        stroke: url(#linear-gradient-5);
        stroke-width: 1.75px;
      }

      .cls-3 {
        stroke: url(#linear-gradient-10);
        stroke-width: 1.44px;
      }

      .cls-20 {
        letter-spacing: -.05em;
      }

      .cls-4 {
        stroke: url(#linear-gradient-7);
        stroke-width: 1.62px;
      }

      .cls-5 {
        stroke: url(#linear-gradient-12);
        stroke-width: 1.31px;
      }

      .cls-19 {
        font-family: Orbitron-Black, Orbitron;
        font-size: 72.62px;
        font-variation-settings: 'wght' 900;
        font-weight: 800;
      }

      .cls-6 {
        stroke: url(#linear-gradient-14);
        stroke-width: 1.19px;
      }

      .cls-7 {
        stroke: url(#linear-gradient-9);
        stroke-width: 1.5px;
      }

      .cls-8 {
        stroke: url(#linear-gradient-8);
        stroke-width: 1.56px;
      }

      .cls-9 {
        stroke: url(#linear-gradient-13);
        stroke-width: 1.25px;
      }

      .cls-10 {
        stroke: url(#linear-gradient-11);
        stroke-width: 1.38px;
      }

      .cls-11 {
        stroke: url(#linear-gradient-15);
        stroke-width: 1.12px;
      }

      .cls-12 {
        stroke: url(#linear-gradient-16);
        stroke-width: 1.06px;
      }

      .cls-13 {
        stroke: url(#linear-gradient);
        stroke-width: 2px;
      }

      .cls-14 {
        stroke: url(#linear-gradient-17);
      }

      .cls-15 {
        stroke: url(#linear-gradient-4);
        stroke-width: 1.81px;
      }

      .cls-16 {
        stroke: url(#linear-gradient-2);
        stroke-width: 1.94px;
      }

      .cls-21 {
        letter-spacing: 0em;
      }

      .cls-17 {
        stroke: url(#linear-gradient-6);
        stroke-width: 1.69px;
      }
    </style>
    <linearGradient id="linear-gradient" x1="239.43" y1="941.95" x2="1232.61" y2="941.95" gradientUnits="userSpaceOnUse">
      <stop offset=".8" stop-color="#fff"/>
      <stop offset=".85" stop-color="#fff" stop-opacity=".76"/>
      <stop offset=".92" stop-color="#fff" stop-opacity=".36"/>
      <stop offset=".98" stop-color="#fff" stop-opacity=".1"/>
      <stop offset="1" stop-color="#fff" stop-opacity="0"/>
    </linearGradient>
    <linearGradient id="linear-gradient-2" x1="237.25" y1="940.16" x2="1230.94" y2="940.16" xlink:href="#linear-gradient"/>
    <linearGradient id="linear-gradient-3" x1="235.07" y1="938.38" x2="1229.27" y2="938.38" xlink:href="#linear-gradient"/>
    <linearGradient id="linear-gradient-4" x1="232.89" y1="936.61" x2="1227.59" y2="936.61" xlink:href="#linear-gradient"/>
    <linearGradient id="linear-gradient-5" x1="230.71" y1="935.35" x2="1225.92" y2="935.35" xlink:href="#linear-gradient"/>
    <linearGradient id="linear-gradient-6" x1="228.53" y1="939.59" x2="1224.24" y2="939.59" xlink:href="#linear-gradient"/>
    <linearGradient id="linear-gradient-7" x1="226.35" y1="943.83" x2="1222.57" y2="943.83" xlink:href="#linear-gradient"/>
    <linearGradient id="linear-gradient-8" x1="224.17" y1="948.07" x2="1220.89" y2="948.07" xlink:href="#linear-gradient"/>
    <linearGradient id="linear-gradient-9" x1="221.99" y1="952.31" x2="1219.21" y2="952.31" xlink:href="#linear-gradient"/>
    <linearGradient id="linear-gradient-10" x1="219.81" y1="948.51" x2="1217.53" y2="948.51" xlink:href="#linear-gradient"/>
    <linearGradient id="linear-gradient-11" x1="217.63" y1="943.81" x2="1215.85" y2="943.81" xlink:href="#linear-gradient"/>
    <linearGradient id="linear-gradient-12" x1="215.45" y1="939.08" x2="1214.18" y2="939.08" xlink:href="#linear-gradient"/>
    <linearGradient id="linear-gradient-13" x1="213.28" y1="934.39" x2="1212.5" y2="934.39" xlink:href="#linear-gradient"/>
    <linearGradient id="linear-gradient-14" x1="211.1" y1="929.76" x2="1210.83" y2="929.76" xlink:href="#linear-gradient"/>
    <linearGradient id="linear-gradient-15" x1="208.92" y1="925.23" x2="1209.16" y2="925.23" xlink:href="#linear-gradient"/>
    <linearGradient id="linear-gradient-16" x1="206.74" y1="920.81" x2="1207.49" y2="920.81" xlink:href="#linear-gradient"/>
    <linearGradient id="linear-gradient-17" x1="204.41" y1="916.52" x2="1205.83" y2="916.52" gradientUnits="userSpaceOnUse">
      <stop offset=".8" stop-color="#fff"/>
      <stop offset=".85" stop-color="#fff" stop-opacity=".76"/>
      <stop offset=".92" stop-color="#fff" stop-opacity=".36"/>
      <stop offset=".98" stop-color="#fff" stop-opacity=".1"/>
      <stop offset="1" stop-color="#fff" stop-opacity="0"/>
    </linearGradient>
  </defs>
  <path class="cls-18" d="M619.93,3c-46.93,0-91.83-.5-134.77-1.5-42.91-.98-73.37-1.5-91.35-1.5-104.82,0-183.66,21.97-236.59,65.88-52.88,43.95-79.36,100.33-79.36,169.22,0,34.95,7.27,69.12,21.73,102.56,14.48,33.46,38.42,63.9,71.86,91.35,33.46,27.45,78.12,49.66,134.02,66.63v3c-78.84,9.99-140.5,28.7-184.93,56.14-44.39,27.47-75.61,59.67-93.59,96.59C9,688.3,0,727.24,0,768.16c0,56.9,14.22,107.05,42.67,150.49,28.47,43.43,69.65,77.62,123.55,102.56,53.91,24.98,118.29,37.45,193.16,37.45,21.96,0,54.9-.76,98.83-2.26s96.84-2.23,158.72-2.23h3.26V3h-.26ZM570.51,521.1h-28.45v378.83c0,34.95-2.99,61.39-9,79.36-5.98,17.96-16.95,29.95-32.93,35.93-15.96,5.99-39.42,9-70.37,9-97.83,0-168.95-22.7-213.38-68.15-44.41-45.4-66.64-110.04-66.64-193.89,0-76.87,20.73-136.26,62.15-178.2,41.43-41.93,109.56-62.88,204.39-62.88h125.78l6.13-25.77-106.46.31c-58.89,0-104.3-11.23-136.26-33.69-31.94-22.47-53.9-52.41-65.89-89.84-11.97-37.44-17.96-77.62-17.96-120.55,0-73.86,16.24-129.52,48.66-166.95,32.46-37.44,86.11-56.16,160.98-56.16,45.92,0,75.87,8.5,89.83,25.46,13.99,16.98,20.97,51.43,20.97,103.32v338.41h28.45v25.46Z"/>
  <path class="cls-18" d="M665.81,757.08v13.55s15.14,0,15.14,0v-13.55s-15.14,0-15.14,0ZM619.85,494.84v559.49c6.83-.03,13.69-.05,20.59-.05,33,0,61.21.39,84.63,1.19,23.42.8,40.98,1.2,52.7,1.2,39.92,0,74.25-6.63,102.99-19.93,28.74-13.27,50.7-31.46,65.88-54.57,15.17-23.11,22.75-49.8,22.75-80.07,0-21.77-4.8-42.49-14.37-62.14-9.58-19.65-26.23-36.78-49.9-51.4-23.69-14.6-56.57-24.55-98.61-29.87v-1.59c29.81-9.03,53.62-20.85,71.46-35.46,17.83-14.61,30.59-30.81,38.32-48.61,7.71-17.79,11.58-35.98,11.58-54.57,0-36.66-14.12-66.65-42.31-90.04-28.22-23.36-70.26-35.05-126.15-35.05-9.58,0-25.83.28-48.71.8-22.89.53-46.84.8-71.85.8-6.3,0-12.63-.03-19-.11ZM806.84,739.15c-17.01,11.95-41.17,17.93-72.5,17.93h-53.38v-180.07c0-27.61,3.72-45.94,11.16-54.98,7.43-9.02,23.36-13.55,47.8-13.55,39.84,0,68.39,9.96,85.66,29.88,17.25,19.91,25.89,49.53,25.89,88.83,0,22.84-3.18,44.22-9.55,64.15-6.38,19.91-18.07,35.85-35.06,47.8ZM680.95,770.63h66.93c50.46,0,86.71,11.15,108.76,33.46,22.04,22.31,33.07,53.92,33.07,94.82,0,44.62-11.83,79.01-35.46,103.17-23.64,24.18-61.48,36.26-113.54,36.26-16.46,0-28.95-1.6-37.44-4.79-8.5-3.18-14.34-9.56-17.53-19.12-3.2-9.56-4.79-23.63-4.79-42.23v-201.58Z"/>
  <text class="cls-19" transform="translate(681.3 487.01) rotate(-90)"><tspan x="0" y="0">SO</tspan><tspan class="cls-21" x="120.26" y="0">F</tspan><tspan x="173.49" y="0">T</tspan><tspan class="cls-20" x="228.6" y="0">W</tspan><tspan x="310.66" y="0">ARE</tspan></text>
  <g>
    <path class="cls-13" d="M239.69,1007.03c408-111.62,486.54,148.35,675,0,174.81-137.61,247.28-14.93,317-177.82"/>
    <path class="cls-16" d="M237.5,1003.95c382.5-104.65,482.39,122.97,671.31-5.52,174.7-118.82,247.12-2.43,321.25-157.62"/>
    <path class="cls-1" d="M235.31,1000.88c357-97.67,478.02,97.66,667.63-11.05,174.39-99.99,246.96,10.07,325.5-137.42"/>
    <path class="cls-15" d="M233.13,997.8c331.5-90.69,473.38,72.38,663.94-16.57,173.85-81.15,246.8,22.56,329.75-117.22"/>
    <path class="cls-2" d="M230.94,994.73c306-83.72,468.45,47.06,660.25-22.1,173.04-62.39,246.64,35.06,334-97.02"/>
    <path class="cls-17" d="M228.75,991.65c280.5-76.74,463.22,21.6,656.56-27.62,171.96-43.77,246.48,47.56,338.25-76.82"/>
    <path class="cls-4" d="M226.56,988.58c255-69.76,457.72-4.1,652.88-33.14,170.65-25.4,246.32,60.06,342.5-56.62"/>
    <path class="cls-8" d="M224.38,985.5c229.5-62.79,452.03-30.12,649.19-38.67,169.17-7.33,246.16,72.56,346.75-36.42"/>
    <path class="cls-7" d="M222.19,982.43c204-55.81,446.27-56.54,645.5-44.19,167.63,10.39,246.01,85.06,351-16.22"/>
    <path class="cls-3" d="M220,979.35c178.5-48.84,440.55-83.36,641.81-49.72,166.12,27.77,245.85,97.56,355.25,3.97"/>
    <path class="cls-10" d="M217.81,976.28c153-41.86,435-110.55,638.13-55.24,164.75,44.86,245.69,110.06,359.5,24.17"/>
    <path class="cls-5" d="M215.63,973.2c127.5-34.88,429.69-138.04,634.44-60.76,163.58,61.74,245.53,122.56,363.75,44.37"/>
    <path class="cls-9" d="M213.44,970.13c102-27.91,424.68-165.73,630.75-66.29,162.65,78.48,245.37,135.05,368,64.57"/>
    <path class="cls-6" d="M211.25,967.05c76.5-20.93,419.96-193.52,627.06-71.81,161.94,95.17,245.21,147.55,372.25,84.77"/>
    <path class="cls-11" d="M209.06,963.98c51-13.95,415.51-221.34,623.38-77.34,161.46,111.85,245.05,160.05,376.5,104.97"/>
    <path class="cls-12" d="M206.88,960.9c25.5-6.98,411.29-249.13,619.69-82.86,161.15,128.58,244.89,172.55,380.75,125.17"/>
    <path class="cls-14" d="M204.69,957.83s407.26-276.86,616-88.39c161,145.37,244.73,185.05,385,145.37"/>
  </g>
  <rect class="cls-18" x="541.29" y="37.13" width="37" height="950.18" transform="translate(4.8 -5.2) rotate(.53)"/>
</svg>